<svg width="296" height="130" viewBox="0 0 296 130" fill="none" xmlns="http://www.w3.org/2000/svg">
<path d="M0 47.6923H15.0812V60H15.3368C17.1261 55.641 20.449 52.3077 25.3057 49.4871C29.9067 46.923 35.5302 45.641 41.6649 45.641C45.4991 45.641 49.0777 46.1538 52.6563 47.4359C56.2349 48.7179 59.3022 50.5128 61.8584 52.8205C64.4145 55.3846 66.715 58.4615 68.2487 62.3077C69.7824 66.1538 70.5492 70.7692 70.5492 76.1538V127.692H55.468V80.5128C55.468 76.6666 54.9568 73.5897 53.9344 71.0256C52.9119 68.4615 51.6338 66.1538 49.8445 64.6153C48.0553 63.0769 46.266 61.7948 43.9654 61.0256C41.6649 60.2564 39.62 60 37.0639 60C33.9965 60 30.9292 60.5128 28.373 61.5384C25.8169 62.5641 23.2608 64.1025 21.2159 66.4102C19.171 68.7179 17.6373 71.282 16.6148 74.8718C15.5924 78.2051 14.8256 82.3076 14.8256 86.923V128.205H0V47.6923Z" fill="#067BF2"/>
<path d="M101.223 93.3332C101.223 96.9229 101.99 99.9998 103.524 102.82C105.057 105.641 107.102 108.205 109.403 110.256C111.959 112.308 114.771 113.846 118.094 114.872C121.417 115.897 124.74 116.666 128.318 116.666C132.919 116.666 137.265 115.641 140.588 113.333C144.166 111.025 147.233 108.205 150.301 104.615L161.803 113.333C153.368 124.359 141.61 129.743 126.273 129.743C119.883 129.743 114.259 128.718 109.147 126.41C104.035 124.359 99.6894 121.282 96.1109 117.436C92.5323 113.59 89.7205 109.231 87.9313 104.102C86.142 98.9742 85.1195 93.3332 85.1195 87.4357C85.1195 81.5383 86.142 75.8973 88.1869 70.7691C90.2318 65.6409 93.0435 61.2819 96.8777 57.4357C100.456 53.5896 104.802 50.7691 109.914 48.4614C115.026 46.4101 120.394 45.1281 126.529 45.1281C133.686 45.1281 139.565 46.4101 144.422 48.9742C149.278 51.5383 153.368 54.6152 156.436 58.7178C159.503 62.8204 161.803 67.1793 163.337 72.3075C164.615 77.4357 165.382 82.3075 165.382 87.6921V93.0768C165.382 93.3332 101.223 93.3332 101.223 93.3332ZM149.278 81.2819C149.278 77.9486 148.512 74.8716 147.745 72.0511C146.722 69.2306 145.444 66.6665 143.399 64.6152C141.61 62.5639 139.054 60.7691 136.242 59.7434C133.43 58.7178 130.107 57.9486 126.273 57.9486C122.439 57.9486 119.116 58.7178 116.049 59.9998C112.981 61.2819 110.425 63.3332 108.125 65.3845C106.08 67.6921 104.29 70.2562 103.268 72.8203C101.99 75.6409 101.479 78.205 101.479 81.0255C101.223 81.2819 149.278 81.2819 149.278 81.2819Z" fill="#067BF2"/>
<path d="M180.207 0H195.288V127.949H180.207V0Z" fill="#067BF2"/>
<path d="M236.953 48.9743C231.841 51.282 227.24 54.1025 223.405 57.9487C219.571 61.7948 216.504 66.1538 214.459 71.282C212.159 76.4102 211.136 81.7948 211.136 87.6923C211.136 93.5897 212.159 98.9743 214.459 104.103C216.76 109.231 219.571 113.59 223.405 117.436C224.684 118.718 226.217 119.744 227.495 121.026L234.141 107.692C231.841 105.385 230.307 102.308 229.029 98.9743C227.751 95.641 227.24 91.7948 227.24 87.6923C227.24 83.5897 227.751 80 229.029 76.4102C230.307 73.0769 232.096 70 234.141 67.6923C236.442 65.3846 239.253 63.3333 242.321 62.0512C245.644 60.7692 249.222 60 253.312 60C254.846 60 256.38 60.2564 257.658 60.2564L264.304 47.1795C260.725 46.1538 257.146 45.641 253.312 45.641C247.689 45.641 242.065 46.6666 236.953 48.9743Z" fill="#59C0FE"/>
<path d="M283.73 57.9486C282.708 56.923 281.43 55.8973 280.407 54.8717L273.506 68.4614C275.295 70.7691 276.829 73.3332 278.107 76.4102C279.385 79.7435 279.896 83.5896 279.896 87.6922C279.896 91.7948 279.385 95.3845 278.107 98.9742C276.829 102.308 275.039 105.385 272.995 107.692C270.694 110 267.882 112.051 264.815 113.333C261.492 114.872 257.913 115.384 253.824 115.384C252.545 115.384 251.523 115.385 250.245 115.128L243.599 128.461C246.922 129.231 250.245 129.743 253.568 129.743C259.447 129.743 265.07 128.718 270.183 126.41C275.295 124.102 279.896 121.282 283.73 117.436C287.564 113.59 290.632 109.231 292.677 104.102C294.977 98.9742 296 93.5896 296 87.6922C296 81.7948 294.977 76.4102 292.677 71.282C290.632 66.4102 287.564 61.7948 283.73 57.9486Z" fill="#067BF2"/>
</svg>
